<svg xmlns="http://www.w3.org/2000/svg" xmlns:xlink="http://www.w3.org/1999/xlink" xml:space="preserve" version="1.1" style="shape-rendering:geometricPrecision;text-rendering:geometricPrecision;image-rendering:optimizeQuality;" viewBox="0 0 100000 100000" x="0px" y="0px" fill-rule="evenodd" clip-rule="evenodd"><defs><style type="text/css">
   
    .fil0 {fill:black}
   
  </style></defs><g><path class="fil0" d="M29629 47726c0,0 253,-842 903,-1095 651,-252 1618,-243 1983,-150 364,95 1514,1117 2007,1450 492,332 2143,965 3602,632 1459,-332 4535,-1554 5185,-1728 650,-174 2015,825 2015,825 0,0 -9953,4868 -10397,5059 -444,190 -809,270 -1665,-349 -856,-620 -3315,-3124 -3568,-3362 -252,-238 -62,-1251 -65,-1282zm49693 11429c968,0 1750,804 1750,1797 0,993 -782,1797 -1750,1797 -966,0 -1748,-804 -1748,-1797 0,-555 244,-1050 629,-1379l-781 -1350c-827,609 -1365,1604 -1365,2729 0,1854 1462,3356 3265,3356 1805,0 3267,-1502 3267,-3356 0,-1853 -1462,-3355 -3267,-3355 -398,0 -778,73 -1131,207l801 1384c107,-21 217,-33 330,-33zm0 -3572c2886,0 5227,2405 5227,5369 0,2965 -2341,5370 -5227,5370 -2885,0 -5226,-2405 -5226,-5370 0,-1860 921,-3500 2322,-4463l-869 -1504c-1949,1257 -3240,3460 -3240,5967 0,3909 3139,7076 7013,7076 3876,0 7015,-3167 7015,-7076 0,-3908 -3139,-7076 -7015,-7076 -1077,0 -2097,246 -3009,683l866 1495c654,-302 1380,-471 2143,-471zm-35682 -1274c0,0 -79,666 856,1379 935,714 2298,1283 2743,1616 444,334 587,920 587,920 0,0 -952,1395 -1428,1728 -475,334 -2490,556 -3345,524 -857,-33 -2220,-142 -2220,-142 0,0 2807,-6011 2807,-6025zm16148 4173c0,0 1824,-3173 2188,-3474 365,-301 967,-823 1427,-713 460,111 633,982 268,1585 -363,603 -1152,3268 -1582,3934 -429,665 -603,554 -603,554 0,0 -682,-1618 -1698,-1886zm-10317 287l1157 31c0,0 1491,-2187 4233,-2044 2743,142 3853,1237 4600,1950 745,712 2002,2060 2002,2060 0,0 -1344,603 -1122,1016l105 179c827,-533 1457,-1294 1979,-2224 607,-1082 1080,-2405 1537,-3870 377,-1206 619,-2300 849,-3343 239,-1084 470,-2124 809,-3168 -1607,-796 -6195,-2883 -9568,-2643 -2138,152 -4272,515 -6340,1058 -1465,388 -2900,866 -4283,1429l-5218 11502 3546 0 95 10c4,0 1840,256 2631,-429 519,-450 1170,-1110 1522,-1706 186,-312 286,-577 203,-694 -447,-645 -1456,-1914 -1614,-2114 -307,-299 -1186,-1323 -16,-2336l636 734c-513,443 16,878 16,878l117 114c4,4 1135,1415 1660,2170 346,494 208,1116 -164,1743 -413,696 -1145,1442 -1725,1944 -989,858 -2954,703 -3377,659l-775 0c-799,2690 -3913,2888 -3920,2888l-67 6 -2967 0 0 410c0,306 -253,557 -559,557l-9140 0c-114,259 -373,440 -672,440l-13898 0c-404,0 -734,-330 -734,-734l0 -1949 15283 0c375,0 721,-189 926,-492l8487 0c181,93 307,283 307,499l0 296 2966 0c381,-43 2291,-329 2960,-1921l-4004 0 0 207c0,344 -283,627 -627,627l-10261 0c-127,290 -419,493 -754,493l-15602 0c-453,0 -823,-371 -823,-825l0 -2474c0,-454 370,-823 823,-823l11752 0c935,-489 1876,-989 2823,-1495l-412 -701 752 -442 430 734 299 -161 -403 -686 751 -441c-1241,-1127 -2885,-1812 -4686,-1812 -3052,0 -5649,1966 -6613,4711l-3944 0c487,-2222 1644,-4189 3249,-5673 157,177 388,289 643,289l2444 0c474,0 862,-387 862,-862l0 -423c1610,-675 3880,-842 5552,-710 1580,125 2931,924 4048,2006 520,504 1024,1271 1470,1789l4 4 6 8 9 12 10 9 1 0 9 12 10 11 7 7 12 14 9 12 4 2 7 8 9 11 10 8 0 1 9 11 10 11 5 6 4 4 9 10 6 5 4 4 1 3 8 8 10 11 8 7 1 2 11 8 8 11 4 3 6 6 9 10 9 8 2 0 8 9 8 9 7 7 3 2 9 10 10 7 3 3 5 6 9 8 10 9 11 9 12 10 1 1 10 7 13 9 6 4 7 5 12 8 9 6 4 2 14 6 14 7 0 1 14 6 16 7 4 1 11 6 15 6 9 3 8 3 15 4 13 3 5 3 33 8 0 1 18 4 17 4 5 0 14 4 19 3 7 2 11 2 20 2 13 3 5 1 20 1 19 1 1 0 20 3 21 2 4 0 16 1 22 1 8 0 12 2 22 0 14 0 6 0 44 0 23 0 22 0 4 0 19 -2 22 0 11 -1 12 0 24 -2 16 -1 7 0 23 -2 24 -2 1 0 22 -1 24 -2 6 -2 19 -1 23 -3 12 -2 14 -1 24 -3 18 -3 7 -1 24 -3 24 -4 1 0 25 -3 25 -4 5 -1 21 -4 25 -4 10 -3 16 -1 24 -5 18 -3 8 -1 25 -5 24 -5 2 0 26 -6c681,-140 1416,-430 1733,-636 410,-269 1012,-1069 946,-1660 321,90 655,69 1063,-107 3390,-1458 7080,-3400 10413,-5066l267 -134 147 33 82 17 79 -30c2783,-1042 6368,-2320 9294,-2581 2210,-199 5153,387 7218,1246l124 52 119 -59c156,-78 294,-172 421,-277 1321,496 2434,1009 3121,1344 287,-593 634,-1053 1009,-1408l-628 0 0 -2051 -2623 0c-316,882 -751,1790 -1431,2129 0,0 -3806,-1586 -7357,-1268 -3551,318 -9370,2599 -9370,2599 0,0 -828,-173 -1247,-506 -421,-334 1,-1223 602,-1729 603,-508 5113,-4015 8222,-5125 3109,-1110 7611,-1999 9196,-1270 1384,638 2189,2145 2118,2981l1890 0 828 0 -876 -1551 -1678 0 0 -1208 568 0 38 -2172 -1494 0c-195,670 -795,1158 -1505,1158 -674,0 -1250,-441 -1472,-1060l-949 -651c-181,167 -421,268 -684,268 -569,0 -1034,-479 -1034,-1070 0,-590 465,-1070 1034,-1070l136 10c230,-313 555,-670 894,-755 623,-157 2138,-1220 2473,-1207l0 -78 2339 0 237 -2247 -582 0c-76,858 -463,1509 -930,1509 -34,0 -68,-3 -101,-10 382,-97 680,-868 680,-1806 0,-936 -298,-1708 -680,-1804 33,-7 67,-11 101,-11 495,0 900,732 940,1663l736 -2c203,10 342,67 304,408l0 52 -6 0 -502 4760 0 247 729 0 0 609 23 0 -56 3259 1081 0 2286 -672 189 643 -1551 456 795 1407c784,-704 2226,-1176 3876,-1176 191,0 377,6 560,19 76,-13 154,-19 232,-19 1033,0 1871,1072 1871,2394 0,1322 -838,2394 -1871,2394 -78,0 -156,-6 -232,-17 -183,11 -369,17 -560,17 -708,0 -1378,-87 -1974,-241l3154 5556c4561,-2036 9050,-558 9050,-558 33,0 -1774,2220 -1774,2220 0,0 -3150,-742 -6371,704l172 299c1829,-805 4193,-1088 6126,-669l215 48 128 -173c78,-98 570,-628 1017,-1199 4348,1414 7492,5528 7492,10383 0,6024 -4839,10908 -10812,10908 -5971,0 -10812,-4884 -10812,-10908 0,-1138 173,-2234 493,-3265l1215 221 103 -264c715,-1826 2326,-3674 4055,-4685l-173 -299c-2993,1722 -4201,4859 -4201,4859l-2283 -411c0,0 970,-3907 4823,-6382l-2154 -3795c-646,11 -1739,232 -2332,1513 -683,1475 -1008,2938 -1352,4499 -244,1112 -503,2275 -885,3501 -492,1576 -1008,3014 -1699,4244 -667,1188 -1495,2178 -2609,2896l19 38c143,301 -28,912 -306,1039 -279,128 -3418,1174 -5219,1094 0,0 -1527,-1497 -3399,-2306 -1873,-808 -4837,-1521 -4837,-1521 0,0 -356,-652 327,-1254 683,-603 1344,-1151 1375,-1905zm14915 -6821c0,0 -808,-32 -1459,-286 -649,-253 -3837,-1807 -3837,-1807 0,0 -429,-397 -587,-666 -157,-270 -450,3128 -560,3667 -111,537 -1396,2758 -1396,2758l-554 -47 -119 721c0,0 2487,601 3710,1980l380 -571 -603 -602c0,0 797,-2032 1303,-2444 508,-412 1048,-222 1048,-222 0,0 879,650 2674,-2481zm-6209 -3548c181,533 677,858 1331,1206l3694 1966c387,204 885,194 1428,126 227,-634 -46,-1629 -792,-2219l-3711 -1444c-1022,-146 -1477,42 -1950,365zm-12254 3548c0,0 809,-32 1458,-286 650,-253 3838,-1807 3838,-1807 0,0 430,-397 587,-666 158,-270 450,3128 561,3667 110,537 1395,2758 1395,2758l555 -47 118 721c0,0 -2487,601 -3709,1980l-381 -571 603 -602c0,0 -796,-2032 -1304,-2444 -507,-412 -1046,-222 -1046,-222 0,0 -880,650 -2675,-2481zm6210 -3548c-182,533 -678,858 -1332,1206l-3695 1966c-386,204 -884,194 -1427,126 -226,-634 45,-1629 793,-2219l3710 -1444c1023,-146 1477,42 1951,365zm3036 1230c584,0 1058,502 1058,1120 0,618 -474,1120 -1058,1120 -584,0 -1059,-502 -1059,-1120 0,-618 475,-1120 1059,-1120zm39 -2414c1619,0 2935,650 2935,2863 0,2214 -1316,5156 -2935,5156 -1622,0 -2938,-2942 -2938,-5156 0,-2213 1316,-2863 2938,-2863zm-39 2123c746,0 1351,631 1351,1411 0,780 -605,1411 -1351,1411 -746,0 -1350,-631 -1350,-1411 0,-780 604,-1411 1350,-1411zm-12495 18251c-3590,24 -5080,-1050 -5962,-2505 1021,0 2515,166 3505,-80 1135,-280 2372,-1029 2616,-1585l547 -1356 4384 151c4037,1194 4679,1447 8197,3757 2675,66 5179,-778 7453,-2172 -2085,1883 -4397,3675 -7389,3695l-13351 95zm-6473 -8609l-759 -4154 7736 -3995 -3393 7705 -3584 444zm-603 -13l-602 -4091 -1840 1014 825 3140 1617 -63zm-8912 -3276l417 710 182 -97c-188,-216 -388,-422 -599,-613zm754 3678l9867 0c346,0 627,283 627,627l0 705 1319 0 4987 -10991 -588 271c-3831,1819 -7884,3972 -11952,6156 446,917 771,1903 949,2940l-3888 0c-106,-393 -247,-774 -416,-1136l-259 138 438 745 -753 442 -454 -775 -298 161 421 717zm4228 6459c-1774,3575 -5439,6031 -9672,6031 -4058,0 -7594,-2256 -9442,-5591l4811 0c1236,1095 2856,1759 4631,1759 2001,0 3804,-844 5081,-2199l4591 0zm-15914 -17089c806,-766 3134,-2568 7157,-2517 2851,35 5098,635 6527,1157 -44,98 -77,196 -96,290 -53,453 -191,1229 153,1552 1131,1065 2361,2492 3596,3385 181,131 351,243 516,330 224,243 -60,1145 -731,1583 -949,621 -2477,757 -2670,582 -333,-300 -2378,-3900 -5993,-4185 -3377,-267 -5592,683 -5869,810l0 614c0,314 -255,569 -569,569l-2444 0c-314,0 -569,-255 -569,-569l0 -954c0,-315 255,-570 569,-570l1957 0c-527,-477 -1136,-1031 -1511,-1383l-588 0c-39,0 -73,-12 -101,-30l0 86c0,104 -84,188 -189,188l-317 0c-104,0 -189,-84 -189,-188l0 -810c0,-106 85,-189 189,-189l317 0c105,0 189,83 189,189l0 90c28,-18 62,-30 101,-30l565 0zm48079 -20600c399,0 723,813 723,1815 0,1004 -324,1816 -723,1816 -398,0 -721,-812 -721,-1816 0,-1002 323,-1815 721,-1815z"></path></g></svg>