<?xml version="1.0" encoding="utf-8"?>
<!-- Generator: Adobe Illustrator 26.2.1, SVG Export Plug-In . SVG Version: 6.00 Build 0)  -->
<svg version="1.1" id="Layer_1" xmlns="http://www.w3.org/2000/svg" xmlns:xlink="http://www.w3.org/1999/xlink" x="0px" y="0px"
	 viewBox="0 0 23.9 15.3" style="enable-background:new 0 0 23.9 15.3;" xml:space="preserve">
<style type="text/css">
	.st0{fill:none;}
</style>
<g>
	<g>
		<path class="st0" d="M0.1-4.2c7.9,0,15.8,0,23.8,0c0,7.9,0,15.8,0,23.8c-7.9,0-15.8,0-23.8,0C0.1,11.6,0.1,3.7,0.1-4.2z"/>
		<path d="M2.2,0h19.4c0.6,0,1.2,0.3,1.6,0.7c0.4,0.4,0.7,1,0.7,1.6v10.8c0,0.6-0.3,1.2-0.7,1.6s-1,0.7-1.6,0.7H2.2
			c-0.6,0-1.2-0.3-1.6-0.7c-0.4-0.4-0.7-1-0.7-1.6V2.2c0-0.6,0.3-1.2,0.7-1.6C1.1,0.3,1.6,0,2.2,0z M8.2,4.4L8.2,4.4
			C8,4.1,7.5,3.9,7.1,3.9C6.7,3.9,6.3,4.1,6,4.4C5.7,4.7,5.5,5.1,5.5,5.5C5.5,6,5.7,6.4,6,6.7C6.3,7,6.7,7.1,7.1,7.1
			C7.5,7.1,8,7,8.2,6.7l0,0C8.5,6.4,8.7,6,8.7,5.5C8.7,5.1,8.5,4.7,8.2,4.4z M7.1,12.5H2.7v0v-1.2V2.9h0.5h8.2v9.6l0,0v0
			C11.5,12.5,7.1,12.5,7.1,12.5z M10.4,11.4v-0.1c0-0.8-0.4-1.6-1-2.2C8.8,8.6,8,8.2,7.1,8.2S5.4,8.6,4.8,9.1c-0.6,0.6-1,1.4-1,2.2
			v0.1C3.8,11.4,10.4,11.4,10.4,11.4z M13.2,11.4h3.6v1.1h-3.6V11.4z M13.2,8.6h7.1v1.1h-7.1C13.2,9.6,13.2,8.6,13.2,8.6z M13.2,5.7
			h7.1v1.1h-7.1C13.2,6.8,13.2,5.7,13.2,5.7z M13.2,2.9h7.1v1.1h-7.1C13.2,3.9,13.2,2.9,13.2,2.9z M21.6,1.1H2.2
			c-0.3,0-0.6,0.1-0.8,0.3C1.2,1.6,1.1,1.9,1.1,2.2v10.8c0,0.3,0.1,0.6,0.3,0.8c0.2,0.2,0.5,0.3,0.8,0.3h19.4c0.3,0,0.6-0.1,0.8-0.3
			c0.2-0.2,0.3-0.5,0.3-0.8V2.2c0-0.3-0.1-0.6-0.3-0.8C22.3,1.2,22,1.1,21.6,1.1z" style="&#10;    fill: #a2a9ae;&#10;"/>
	</g>
</g>
</svg>
